<svg xmlns="http://www.w3.org/2000/svg" width="4773.3" height="933.3" version="1.0" viewBox="0 0 3580 700">
  <g fill="#6c4091">
    <path
      d="M0 122v121h918V0H0v122zM1082 350v350h243V243h96v457h243V243h93v457h243V0h-918v350zM2208 122v121h316l-49 72-63 92-67 98-92 135-40 59c-1 1 29 1 146 1h147l17-25 28-41 46-66 48-71 18-27 5-8 7 10 20 29 91 133 29 42 16 24h147c117 0 147 0 146-1l-40-59-92-135-67-98-63-92-49-71 157-1h156V0h-918v122zM3337 350v350h243V0h-243v350zM0 579v121h918V457H0v122z" />
  </g>
</svg>