<svg height="128" width="128" viewBox="0 0 24.1 23.4" xmlns="http://www.w3.org/2000/svg">
    <g fill="#181c2d">
        <path d="M12,0C5.4,0,0,5.4,0,12c0,5.2,3.3,9.8,8.2,11.4C8.8,23.5,9,23.1,9,22.8s0-1,0-2c-3.3,0.7-4-1.6-4-1.6
        c-0.2-0.7-0.7-1.3-1.3-1.8c-1.1-0.7,0.1-0.7,0.1-0.7c0.8,0.1,1.4,0.6,1.8,1.2c0.7,1.2,2.2,1.7,3.5,1c0,0,0,0,0,0
        c0.1-0.6,0.3-1.2,0.8-1.6C7.2,17,4.4,16,4.4,11.4c0-1.2,0.4-2.3,1.2-3.2C5.3,7.2,5.3,6,5.7,5c0,0,1-0.3,3.3,1.2c2-0.5,4-0.5,6,0
        C17.3,4.7,18.3,5,18.3,5c0.4,1,0.5,2.1,0.1,3.2c0.8,0.9,1.2,2,1.2,3.2c0,4.6-2.8,5.6-5.5,5.9c0.6,0.6,0.9,1.4,0.8,2.2
        c0,1.6,0,2.9,0,3.3s0.2,0.7,0.8,0.6c6.3-2.1,9.7-8.9,7.6-15.2C21.8,3.3,17.2,0,12,0z" />
    </g>
</svg>