<svg version="1.0" xmlns="http://www.w3.org/2000/svg" width="3580.000000pt" height="700.000000pt"
        viewBox="0 0 3580.000000 700.000000">
        <g transform="translate(0.000000,700.000000) scale(0.100000,-0.100000)" fill="#6c4091" stroke="none">
                <path d="M0 5785 l0 -1215 4590 0 4590 0 0 1215 0 1215 -4590 0 -4590 0 0
-1215z" />
                <path d="M10820 3500 l0 -3500 1215 0 1215 0 0 2285 0 2285 480 0 480 0 0
-2285 0 -2285 1215 0 1215 0 0 2285 0 2285 465 0 465 0 0 -2285 0 -2285 1215
0 1215 0 0 3500 0 3500 -4590 0 -4590 0 0 -3500z" />
                <path d="M22080 5785 l0 -1215 1580 -2 1579 -3 -485 -710 c-268 -390 -553
-807 -634 -925 -81 -118 -382 -559 -670 -980 -557 -815 -734 -1074 -920 -1345
-214 -311 -397 -580 -404 -593 -6 -9 290 -12 1463 -12 l1469 0 173 252 c95
139 221 323 279 408 59 85 264 385 456 665 191 281 409 598 482 705 74 107
157 229 185 271 l51 76 70 -101 c38 -56 126 -184 196 -286 392 -574 799 -1168
910 -1330 69 -102 200 -292 289 -423 l163 -237 1469 0 c1173 0 1469 3 1463 13
-7 12 -190 281 -404 592 -186 271 -363 530 -920 1345 -288 421 -589 862 -670
980 -81 118 -366 535 -634 925 l-485 710 1564 3 1565 2 0 1215 0 1215 -4590 0
-4590 0 0 -1215z" />
                <path d="M33370 3500 l0 -3500 1215 0 1215 0 0 3500 0 3500 -1215 0 -1215 0 0
-3500z" />
                <path d="M0 1215 l0 -1215 4590 0 4590 0 0 1215 0 1215 -4590 0 -4590 0 0
-1215z" />
        </g>
</svg>